<svg xmlns="http://www.w3.org/2000/svg" viewBox="0 0 64 64">
  <!-- The Shop coin: a gold piece struck with the Spire and its blue flame, so it
       reads apart from the in-run gold icon at a glance. -->
  <defs>
    <radialGradient id="rim" cx="36%" cy="28%" r="80%">
      <stop offset="0" stop-color="#fff4b8"/>
      <stop offset="0.35" stop-color="#f6c548"/>
      <stop offset="0.75" stop-color="#c8761b"/>
      <stop offset="1" stop-color="#7c3a0b"/>
    </radialGradient>
    <radialGradient id="face" cx="40%" cy="32%" r="76%">
      <stop offset="0" stop-color="#ffe382"/>
      <stop offset="0.5" stop-color="#eaa936"/>
      <stop offset="1" stop-color="#a65a16"/>
    </radialGradient>
    <linearGradient id="spire" x1="0" y1="0" x2="1" y2="0">
      <stop offset="0" stop-color="#4d2006"/>
      <stop offset="0.45" stop-color="#8a4512"/>
      <stop offset="1" stop-color="#3f1a05"/>
    </linearGradient>
    <radialGradient id="flame" cx="50%" cy="72%" r="72%">
      <stop offset="0" stop-color="#f6ffff"/>
      <stop offset="0.45" stop-color="#93f1ff"/>
      <stop offset="1" stop-color="#1c9fd2"/>
    </radialGradient>
    <clipPath id="tower"><path d="M32 16.2 37.6 47H26.4Z"/></clipPath>
  </defs>
  <circle cx="32" cy="33.6" r="29" fill="#2a1405" opacity="0.5"/>
  <circle cx="32" cy="32" r="29" fill="url(#rim)" stroke="#3a1a05" stroke-width="2"/>
  <circle cx="32" cy="32" r="25.7" fill="none" stroke="#81450f" stroke-width="2.6" stroke-dasharray="1.4 2.2" opacity="0.8"/>
  <circle cx="32" cy="32" r="22.6" fill="#5e2c08"/>
  <circle cx="32" cy="32.7" r="21.5" fill="url(#face)"/>
  <path d="M19 47.2c4-2.2 8.4-3 13-3s9 .8 13 3l-1.6 2.6H20.6Z" fill="#6a300a"/>
  <path d="M32 16.2 37.6 47H26.4Z" fill="url(#spire)"/>
  <g clip-path="url(#tower)" fill="none" stroke="#b9661f" stroke-width="1.3" opacity="0.9">
    <path d="M24 26.5 40 21.5M24 33.5 40 28.5M24 40.5 40 35.5"/>
  </g>
  <g fill="#ffcf5c">
    <circle cx="31.2" cy="27.6" r="0.95"/>
    <circle cx="33.1" cy="33.2" r="0.95"/>
    <circle cx="30.4" cy="38.4" r="0.95"/>
    <circle cx="33.6" cy="42.6" r="0.95"/>
  </g>
  <path d="M32 8.4c2.8 2.9 3.7 5.4 2.6 7.5-.5 1-1.5 1.7-2.6 1.7s-2.1-.7-2.6-1.7c-1.1-2.1.1-4.6 2.6-7.5Z"
    fill="url(#flame)" stroke="#0b5876" stroke-width="0.8"/>
  <path d="M16.6 20.6a19.5 19.5 0 0 1 11.8-8" fill="none" stroke="#fffbe2" stroke-width="2" stroke-linecap="round" opacity="0.65"/>
</svg>
